# xmcd CD database file
# Copyright (C) 1997 Ti Kan
#
# Track frame offsets:
#  150
#  13583
#  36570
#  52165
#  61820
#  79130
#  95830
#  111523
#  126863
#  143235
#
# Disc length: 2104 seconds
#
# Revision: 1
# Processed by: cddbd v1.4b41PL1 Copyright (c) Steve Scherf et al.
# Submitted via: CDWizzard Release:4.31
#
DISCID=9408360a
DTITLE=Phillip Walker - The Bottom Of The Top
DYEAR=1900
DGENRE=
TTITLE0=I Can't Lose (With The Stuff I Use)
TTITLE1=Tin Pan Alley
TTITLE2=Hello Central
TTITLE3=Hello My Darling
TTITLE4=Laughing And Clowning
TTITLE5=Crazy Girl
TTITLE6=It's All In Your Mind
TTITLE7=The Bottom Of The Top
TTITLE8=Hey, Hey, Baby's Gone
TTITLE9=Crying Time
EXTD=HCD 8020\n\nSubmitted 7/16/97\n[Jmccoy@efn.org]
EXTT0=
EXTT1=
EXTT2=
EXTT3=
EXTT4=
EXTT5=
EXTT6=
EXTT7=
EXTT8=
EXTT9=
PLAYORDER=
